<?xml version="1.0" standalone="no"?>
<!DOCTYPE svg PUBLIC "-//W3C//DTD SVG 20010904//EN"
 "http://www.w3.org/TR/2001/REC-SVG-20010904/DTD/svg10.dtd">
<svg version="1.0" xmlns="http://www.w3.org/2000/svg"
 width="500.000000pt" height="500.000000pt" viewBox="0 0 500.000000 500.000000"
 preserveAspectRatio="xMidYMid meet">

<g transform="translate(0.000000,500.000000) scale(0.100000,-0.100000)"
fill="#000000" stroke="none">
<path d="M1385 3052 c-22 -11 -53 -34 -70 -53 l-30 -33 35 25 c68 50 133 61
198 33 57 -23 99 -70 113 -125 12 -46 15 -49 46 -49 18 0 33 2 33 5 0 16 -37
95 -57 122 -57 78 -186 114 -268 75z"/>
<path d="M1770 2860 l0 -170 1030 0 1030 0 0 170 0 170 -1030 0 -1030 0 0
-170z m164 54 c29 -11 18 -32 -16 -30 -26 1 -34 -3 -36 -19 -3 -29 13 -49 34
-41 16 6 16 7 -2 21 -18 13 -18 14 -1 20 28 12 47 -2 47 -35 0 -29 -2 -30 -44
-30 -38 0 -45 3 -55 28 -24 57 19 107 73 86z m211 -34 c27 -77 27 -80 11 -80
-9 0 -16 5 -16 10 0 6 -11 10 -25 10 -14 0 -25 -4 -25 -10 0 -5 -25 -10 -55
-10 l-55 0 0 55 c0 42 3 55 15 55 11 0 15 -12 15 -44 0 -41 2 -44 30 -48 20
-3 30 0 30 9 0 7 7 31 16 53 20 50 42 49 59 0z m67 -15 c2 -28 8 -41 21 -43
14 -3 17 4 17 42 0 34 4 46 15 46 11 0 15 -11 15 -43 0 -49 -13 -67 -50 -67
-37 0 -50 18 -50 65 0 71 26 71 32 0z m169 45 c31 -17 22 -29 -16 -23 -34 5
-35 5 -35 -26 0 -36 22 -50 45 -31 18 15 30 7 22 -15 -8 -20 -61 -20 -81 1
-24 23 -20 70 6 88 26 19 33 19 59 6z m117 -6 c24 -16 29 -53 12 -85 -7 -13
-21 -19 -45 -19 -38 0 -55 20 -55 64 0 24 32 56 55 56 6 0 21 -7 33 -16z m86
-22 c12 -41 22 -40 36 3 19 58 40 45 40 -25 0 -61 -19 -87 -21 -27 l-1 32 -14
-32 c-16 -39 -31 -42 -44 -10 l-9 22 0 -22 c-1 -14 -7 -23 -16 -23 -11 0 -15
13 -15 53 0 30 3 57 7 61 13 12 28 0 37 -32z m182 -25 c23 -58 19 -67 -16 -45
-16 10 -24 10 -40 0 -29 -18 -33 -15 -25 15 13 52 35 95 47 91 7 -3 22 -30 34
-61z m152 47 c26 -18 30 -65 6 -88 -8 -9 -31 -16 -50 -16 l-34 0 0 60 c0 59 0
60 28 60 15 0 38 -7 50 -16z m117 1 c0 -5 -12 -11 -28 -13 -30 -4 -27 -22 4
-22 10 0 19 -4 19 -10 0 -5 -11 -10 -25 -10 -16 0 -25 -6 -25 -15 0 -10 10
-15 30 -15 17 0 30 -4 30 -10 0 -5 -18 -10 -40 -10 l-40 0 0 61 0 60 38 -3
c20 -2 37 -7 37 -13z m103 -3 c2 -7 -3 -12 -12 -12 -12 0 -16 -11 -16 -45 0
-33 -4 -45 -15 -45 -11 0 -15 12 -15 45 0 33 -4 45 -15 45 -8 0 -15 6 -15 14
0 17 82 16 88 -2z m90 1 c2 -8 -6 -13 -22 -13 -14 0 -26 -4 -26 -10 0 -5 9
-10 20 -10 11 0 20 -4 20 -10 0 -5 -9 -10 -20 -10 -11 0 -20 -7 -20 -15 0 -9
9 -15 25 -15 14 0 25 -4 25 -10 0 -5 -18 -10 -40 -10 l-40 0 0 53 c0 30 3 57
7 61 11 11 66 2 71 -11z m103 7 c5 0 9 -7 9 -15 0 -11 -7 -13 -29 -9 -33 7
-46 -7 -37 -42 7 -26 41 -34 49 -11 3 9 8 9 16 1 17 -16 -11 -36 -46 -32 -18
2 -32 12 -41 30 -22 46 11 95 56 82 8 -2 18 -4 23 -4z m109 -5 c0 -8 -7 -15
-15 -15 -11 0 -15 -12 -15 -45 0 -33 -4 -45 -15 -45 -11 0 -15 12 -15 45 0 33
-4 45 -15 45 -18 0 -20 16 -2 23 29 12 77 7 77 -8z m40 -45 c0 -45 -3 -60 -14
-60 -11 0 -14 12 -12 53 4 67 4 67 16 67 6 0 10 -27 10 -60z m112 43 c20 -18
24 -73 6 -91 -17 -17 -64 -15 -82 4 -22 21 -20 60 4 84 24 24 47 25 72 3z m91
-20 l22 -38 3 38 c5 60 22 43 22 -23 0 -70 -15 -78 -45 -27 l-20 32 -3 -32
c-2 -21 -9 -33 -18 -33 -10 0 -14 14 -14 53 0 79 18 89 53 30z"/>
<path d="M2106 2865 c-3 -9 0 -15 9 -15 9 0 12 6 9 15 -4 8 -7 15 -9 15 -2 0
-5 -7 -9 -15z"/>
<path d="M2442 2858 c2 -25 8 -33 23 -33 15 0 21 8 23 33 3 29 1 32 -23 32
-24 0 -26 -3 -23 -32z"/>
<path d="M2720 2860 c0 -5 5 -10 10 -10 6 0 10 5 10 10 0 6 -4 10 -10 10 -5 0
-10 -4 -10 -10z"/>
<path d="M2860 2855 c0 -32 3 -36 23 -33 17 2 22 10 22 33 0 23 -5 31 -22 33
-20 3 -23 -1 -23 -33z"/>
<path d="M3534 2876 c-10 -26 1 -51 21 -51 15 0 21 8 23 33 3 27 0 32 -18 32
-11 0 -23 -6 -26 -14z"/>
<path d="M1420 2930 c-7 -4 -10 -14 -8 -21 7 -19 -10 -49 -27 -49 -21 0 -19
-13 6 -44 17 -22 28 -26 57 -24 60 5 88 64 54 116 -11 17 -66 32 -82 22z"/>
<path d="M1184 2839 c-8 -14 60 -131 90 -154 41 -31 108 -55 155 -55 47 1 109
30 141 66 l25 29 -25 -22 c-35 -30 -73 -43 -128 -43 -95 1 -171 62 -187 151
-6 32 -10 36 -37 35 -16 -1 -32 -4 -34 -7z"/>
</g>
</svg>
